<svg width="60" height="60" viewBox="0 0 60 60" fill="none" xmlns="http://www.w3.org/2000/svg">
<path d="M48.8819 7.49285C48.252 7.52214 47.6588 7.70525 47.1314 7.91033H47.1241C46.5894 8.12273 44.0479 9.19207 40.188 10.8107C36.3282 12.4367 31.3184 14.5461 26.3453 16.6408C16.4136 20.8229 6.65045 24.9391 6.65045 24.9391L6.76764 24.8952C6.76764 24.8952 6.09381 25.1149 5.39069 25.5983C5.0318 25.8327 4.63629 26.155 4.29205 26.6603C3.94782 27.1657 3.66949 27.9421 3.77203 28.7404C3.94049 30.0954 4.8194 30.9084 5.44928 31.3552C6.08649 31.8093 6.6944 32.0217 6.6944 32.0217H6.70905L15.8643 35.1052C16.2745 36.4235 18.6548 44.2458 19.2261 46.0475C19.5631 47.1242 19.8926 47.798 20.3028 48.3107C20.5005 48.5744 20.7349 48.7941 21.0132 48.9699C21.1231 49.0358 21.2403 49.0871 21.3575 49.131C21.3941 49.153 21.4307 49.1603 21.4747 49.1677L21.3795 49.1457C21.4088 49.153 21.4307 49.175 21.4527 49.1823C21.5259 49.2043 21.5772 49.2116 21.6724 49.2262C23.1226 49.6657 24.2872 48.7648 24.2872 48.7648L24.3531 48.7136L29.7584 43.7917L38.8184 50.7424L39.0235 50.8302C40.9132 51.6579 42.8248 51.1965 43.8355 50.3835C44.8536 49.5632 45.2491 48.5158 45.2491 48.5158L45.315 48.3473L52.317 12.4806C52.5147 11.5944 52.566 10.7668 52.3463 9.96111C52.1265 9.15545 51.5626 8.40105 50.8814 7.99822C50.1929 7.58806 49.5118 7.46355 48.8819 7.49285ZM48.6915 11.3381C48.6841 11.4552 48.7061 11.4406 48.6548 11.6677V11.6896L41.7188 47.1828C41.6895 47.2341 41.6382 47.3439 41.4991 47.4538C41.3526 47.571 41.2354 47.6442 40.6275 47.4025L29.546 38.9064L22.8516 45.0075L24.2579 36.028C24.2579 36.028 41.6163 19.8488 42.3633 19.153C43.1104 18.4572 42.8614 18.3107 42.8614 18.3107C42.9127 17.4611 41.7335 18.0617 41.7335 18.0617L18.9039 32.2048L18.8965 32.1681L7.95416 28.4841V28.4767C7.94684 28.4767 7.93219 28.4694 7.92487 28.4694C7.93219 28.4694 7.98346 28.4474 7.98346 28.4474L8.04205 28.4181L8.10065 28.3962C8.10065 28.3962 17.8712 24.28 27.8028 20.0978C32.7759 18.0031 37.7857 15.8937 41.6382 14.2677C45.4908 12.6491 48.3399 11.4626 48.501 11.3967C48.6548 11.3381 48.5816 11.3381 48.6915 11.3381Z" fill="white"/>
</svg>
