<svg width="60" height="60" viewBox="0 0 60 60" fill="none" xmlns="http://www.w3.org/2000/svg">
<path d="M48.3595 9.87328C47.1193 8.73071 42.0998 5.08813 30.9083 5.03928C30.9083 5.03928 17.7149 4.24828 11.2891 10.1467C7.71489 13.7209 6.45512 18.9651 6.31839 25.4592C6.18169 31.9532 6.01567 44.1212 17.7442 47.422H17.7539L17.7442 52.4612C17.7442 52.4612 17.666 54.5022 19.0137 54.9122C20.6348 55.4202 21.5918 53.8675 23.1446 52.1975C23.9942 51.2795 25.166 49.932 26.0548 48.9065C34.082 49.5802 40.2443 48.0372 40.9473 47.8127C42.5685 47.2855 51.7383 46.1135 53.2228 33.9455C54.7658 21.387 52.4805 13.4573 48.3595 9.87328ZM49.7168 33.0275C48.457 43.1837 41.0255 43.8282 39.6583 44.2677C39.0723 44.4532 33.6523 45.801 26.8458 45.3615C26.8458 45.3615 21.7676 51.4845 20.1856 53.0765C19.668 53.594 19.1016 53.5452 19.1114 52.5197C19.1114 51.846 19.1504 44.1507 19.1504 44.1507C19.1407 44.1507 19.1407 44.1507 19.1504 44.1507C9.20902 41.3967 9.79497 31.0355 9.90239 25.6155C10.0098 20.1955 11.0352 15.7522 14.0625 12.7639C19.502 7.83226 30.7033 8.56468 30.7033 8.56468C40.166 8.60376 44.6973 11.4553 45.752 12.4123C49.2383 15.4006 51.0158 22.5491 49.7168 33.0275ZM36.1425 25.137C36.1818 25.9767 34.922 26.0355 34.8828 25.1955C34.7755 23.0471 33.7695 22.0022 31.6993 21.885C30.8595 21.8362 30.9375 20.5764 31.7675 20.6252C34.4923 20.7717 36.006 22.3342 36.1425 25.137ZM38.125 26.2405C38.2228 22.0998 35.6348 18.8577 30.7228 18.4963C29.8925 18.4377 29.9805 17.178 30.8105 17.2366C36.4748 17.6467 39.4923 21.5432 39.3848 26.2697C39.375 27.1097 38.1055 27.0705 38.125 26.2405ZM42.7148 27.549C42.7248 28.389 41.455 28.3987 41.455 27.5587C41.3965 19.5998 36.0938 15.2639 29.6583 15.2151C28.8283 15.2053 28.8283 13.9553 29.6583 13.9553C36.8555 14.0041 42.6465 18.9748 42.7148 27.549ZM41.6113 37.1292V37.1487C40.5568 39.0042 38.584 41.055 36.5528 40.4007L36.5333 40.3712C34.4728 39.7952 29.6193 37.2952 26.5528 34.8537C24.9707 33.6037 23.5254 32.1292 22.4121 30.7132C21.4063 29.4532 20.3907 27.9592 19.4043 26.1622C17.3243 22.4026 16.8653 20.7229 16.8653 20.7229C16.211 18.6916 18.252 16.719 20.1172 15.6643H20.1368C21.0352 15.1955 21.8946 15.3518 22.4707 16.0452C22.4707 16.0452 23.6817 17.4905 24.1993 18.2034C24.6875 18.8674 25.3418 19.9319 25.6835 20.5276C26.2793 21.592 25.9083 22.676 25.3223 23.1252L24.1504 24.0627C23.5547 24.5413 23.6328 25.43 23.6328 25.43C23.6328 25.43 25.371 32.0022 31.8653 33.6622C31.8653 33.6622 32.754 33.7405 33.2325 33.1447L34.17 31.973C34.6193 31.387 35.7033 31.0157 36.7675 31.6115C38.2033 32.422 40.0293 33.682 41.2403 34.8245C41.9238 35.381 42.08 36.2307 41.6113 37.1292Z" fill="white"/>
</svg>
