<svg width="60" height="60" viewBox="0 0 60 60" fill="none" xmlns="http://www.w3.org/2000/svg">
<path d="M44 15.8001C42.1673 13.9537 39.9858 12.4901 37.5825 11.4943C35.179 10.4986 32.6015 9.9907 30 10.0001C26.5222 10.0035 23.1062 10.9206 20.0943 12.6596C17.0824 14.3985 14.5802 16.8983 12.8384 19.9085C11.0965 22.9188 10.1761 26.3339 10.1694 29.8117C10.1627 33.2896 11.0698 36.7082 12.8 39.7252L10 50.0001L20.5 47.2501C23.3994 48.8632 26.6572 49.7229 29.975 49.7501C35.2492 49.7504 40.31 47.6672 44.0555 43.9542C47.8013 40.2414 49.9287 35.1992 49.975 29.9252C49.9575 27.2934 49.4205 24.691 48.3953 22.2672C47.37 19.8433 45.8763 17.6456 44 15.8001ZM30 46.3252C27.0443 46.3272 24.1425 45.5327 21.6 44.0252L21 43.6502L14.775 45.3002L16.425 39.2252L16.025 38.6002C13.8981 35.1669 13.1044 31.0727 13.7941 27.0932C14.4838 23.1138 16.609 19.5255 19.7673 17.0082C22.9255 14.4909 26.8972 13.2193 30.9303 13.4344C34.9632 13.6494 38.7775 15.3362 41.65 18.1751C44.79 21.2456 46.5875 25.4339 46.65 29.8252C46.6105 34.2149 44.8387 38.4114 41.7205 41.5016C38.6025 44.5916 34.39 46.3254 30 46.3252ZM39.025 33.9752C38.525 33.7252 36.1 32.5252 35.65 32.3752C35.2 32.2252 34.85 32.1252 34.525 32.6252C34.036 33.2954 33.51 33.9379 32.95 34.5502C32.675 34.9002 32.375 34.9252 31.875 34.5502C29.0243 33.4237 26.6493 31.3487 25.15 28.6752C24.625 27.8002 25.65 27.8502 26.6 25.9752C26.6702 25.8399 26.7068 25.6899 26.7068 25.5377C26.7068 25.3854 26.6702 25.2354 26.6 25.1002C26.6 24.8501 25.475 22.4001 25.075 21.4251C24.675 20.4501 24.275 20.6001 23.95 20.5751H22.975C22.7224 20.579 22.4735 20.6368 22.245 20.7446C22.0165 20.8523 21.8136 21.0077 21.65 21.2001C21.089 21.7456 20.6515 22.4049 20.3669 23.1337C20.0823 23.8625 19.9572 24.6439 20 25.4252C20.1567 27.2954 20.8611 29.0779 22.025 30.5502C24.1555 33.7397 27.0752 36.3234 30.5 38.0502C32.2962 39.0987 34.3837 39.5372 36.45 39.3002C37.138 39.1637 37.7898 38.8839 38.3625 38.4789C38.9355 38.0742 39.4167 37.5532 39.775 36.9502C40.107 36.2142 40.2115 35.3959 40.075 34.6002C39.85 34.3502 39.525 34.2252 39.025 33.9752Z" fill="white"/>
</svg>
